<svg xmlns="http://www.w3.org/2000/svg"
 xmlns:xlink="http://www.w3.org/1999/xlink"
 width="140px" height="25px"  viewBox="0 0 140 25">
<path fill-rule="evenodd"  fill="#ffffff"
 d="M1.8390503,4.057129 C1.8390503,4.057129 6.6390533,4.057129 6.6390533,4.057129 C6.6390533,4.057129 6.6390533,22.957031 6.6390533,22.957031 C6.6390533,22.957031 9.339081,22.957031 9.339081,22.957031 C9.339081,22.957031 9.339081,4.057129 9.339081,4.057129 C9.339081,4.057129 14.139084,4.057129 14.139084,4.057129 C14.139084,4.057129 14.139084,1.9570312 14.139084,1.9570312 C14.139084,1.9570312 1.8390503,1.9570312 1.8390503,1.9570312 C1.8390503,1.9570312 1.8390503,4.057129 1.8390503,4.057129 ZM19.238861,13.057129 C19.238861,13.057129 25.838806,13.057129 25.838806,13.057129 C25.838806,13.057129 25.838806,10.957031 25.838806,10.957031 C25.838806,10.957031 19.238861,10.957031 19.238861,10.957031 C19.238861,10.957031 19.238861,4.057129 19.238861,4.057129 C19.238861,4.057129 26.738815,4.057129 26.738815,4.057129 C26.738815,4.057129 26.738815,1.9570312 26.738815,1.9570312 C26.738815,1.9570312 16.538834,1.9570312 16.538834,1.9570312 C16.538834,1.9570312 16.538834,22.957031 16.538834,22.957031 C16.538834,22.957031 26.738815,22.957031 26.738815,22.957031 C26.738815,22.957031 26.738815,20.856934 26.738815,20.856934 C26.738815,20.856934 19.238861,20.856934 19.238861,20.856934 C19.238861,20.856934 19.238861,13.057129 19.238861,13.057129 ZM34.83873,10.357178 C34.83873,10.357178 31.538757,1.9570312 31.538757,1.9570312 C31.538757,1.9570312 28.83873,1.9570312 28.83873,1.9570312 C28.83873,1.9570312 32.888733,12.156982 32.888733,12.156982 C32.888733,12.156982 28.388763,22.957031 28.388763,22.957031 C28.388763,22.957031 31.08879,22.957031 31.08879,22.957031 C31.08879,22.957031 34.83873,13.957031 34.83873,13.957031 C34.83873,13.957031 38.588745,22.957031 38.588745,22.957031 C38.588745,22.957031 41.288757,22.957031 41.288757,22.957031 C41.288757,22.957031 36.788727,12.156982 36.788727,12.156982 C36.788727,12.156982 40.83873,1.9570312 40.83873,1.9570312 C40.83873,1.9570312 38.13878,1.9570312 38.13878,1.9570312 C38.13878,1.9570312 34.83873,10.357178 34.83873,10.357178 ZM52.8385,1.9570312 C52.8385,1.9570312 52.8385,11.25708 52.8385,11.25708 C52.8385,11.25708 46.53853,11.25708 46.53853,11.25708 C46.53853,11.25708 46.53853,1.9570312 46.53853,1.9570312 C46.53853,1.9570312 43.8385,1.9570312 43.8385,1.9570312 C43.8385,1.9570312 43.8385,22.957031 43.8385,22.957031 C43.8385,22.957031 46.53853,22.957031 46.53853,22.957031 C46.53853,22.957031 46.53853,13.356934 46.53853,13.356934 C46.53853,13.356934 52.8385,13.356934 52.8385,13.356934 C52.8385,13.356934 52.8385,22.957031 52.8385,22.957031 C52.8385,22.957031 55.538513,22.957031 55.538513,22.957031 C55.538513,22.957031 55.538513,1.9570312 55.538513,1.9570312 C55.538513,1.9570312 52.8385,1.9570312 52.8385,1.9570312 ZM62.87346,2.1669922 C62.083176,2.5073242 61.40811,3.0871582 60.848434,3.9069824 C60.288315,4.727295 59.86316,5.8322754 59.573486,7.222168 C59.28331,8.612305 59.138474,10.357178 59.138474,12.457031 C59.138474,14.556885 59.28331,16.302246 59.573486,17.691895 C59.86316,19.082275 60.288315,20.187256 60.848434,21.00708 C61.40811,21.827393 62.083176,22.407227 62.87346,22.74707 C63.663315,23.086914 64.56848,23.25708 65.588425,23.25708 C66.60846,23.25708 67.51311,23.086914 68.30347,22.74707 C69.09332,22.407227 69.76831,21.827393 70.32843,21.00708 C70.88812,20.187256 71.31326,19.082275 71.60344,17.691895 C71.89313,16.302246 72.03847,14.556885 72.03847,12.457031 C72.03847,10.357178 71.89313,8.612305 71.60344,7.222168 C71.31326,5.8322754 70.88812,4.727295 70.32843,3.9069824 C69.76831,3.0871582 69.09332,2.5073242 68.30347,2.1669922 C67.51311,1.8271484 66.60846,1.6569824 65.588425,1.6569824 C64.56848,1.6569824 63.663315,1.8271484 62.87346,2.1669922 ZM64.17845,21.066895 C63.718185,20.807373 63.318283,20.337158 62.97847,19.656982 C62.638138,18.977295 62.36348,18.057373 62.15349,16.897217 C61.94348,15.737305 61.838486,14.25708 61.838486,12.457031 C61.838486,10.656982 61.94348,9.177246 62.15349,8.01709 C62.36348,6.857422 62.638138,5.937256 62.97847,5.25708 C63.318283,4.5771484 63.718185,4.1071777 64.17845,3.8469238 C64.63829,3.5874023 65.10849,3.4570312 65.588425,3.4570312 C66.068436,3.4570312 66.53815,3.5874023 66.99849,3.8469238 C67.45833,4.1071777 67.858154,4.5771484 68.19847,5.25708 C68.538284,5.937256 68.813446,6.857422 69.02345,8.01709 C69.233444,9.177246 69.33844,10.656982 69.33844,12.457031 C69.33844,14.25708 69.233444,15.737305 69.02345,16.897217 C68.813446,18.057373 68.538284,18.977295 68.19847,19.656982 C67.858154,20.337158 67.45833,20.807373 66.99849,21.066895 C66.53815,21.327148 66.068436,21.457031 65.588425,21.457031 C65.10849,21.457031 64.63829,21.327148 64.17845,21.066895 ZM85.98839,20.25708 C85.98839,20.25708 90.33844,7.3571777 90.33844,7.3571777 C90.33844,7.3571777 90.4884,7.3571777 90.4884,7.3571777 C90.4884,7.3571777 91.38843,22.957031 91.38843,22.957031 C91.38843,22.957031 94.08844,22.957031 94.08844,22.957031 C94.08844,22.957031 92.88846,1.9570312 92.88846,1.9570312 C92.88846,1.9570312 89.58841,1.9570312 89.58841,1.9570312 C89.58841,1.9570312 84.698425,16.356934 84.698425,16.356934 C84.698425,16.356934 84.5784,16.356934 84.5784,16.356934 C84.5784,16.356934 79.688416,1.9570312 79.688416,1.9570312 C79.688416,1.9570312 76.38843,1.9570312 76.38843,1.9570312 C76.38843,1.9570312 75.188446,22.957031 75.188446,22.957031 C75.188446,22.957031 77.8884,22.957031 77.8884,22.957031 C77.8884,22.957031 78.78841,7.3571777 78.78841,7.3571777 C78.78841,7.3571777 78.9384,7.3571777 78.9384,7.3571777 C78.9384,7.3571777 83.28844,20.25708 83.28844,20.25708 C83.28844,20.25708 85.98839,20.25708 85.98839,20.25708 ZM106.38812,17.557129 C106.38812,17.557129 107.7381,22.957031 107.7381,22.957031 C107.7381,22.957031 110.43811,22.957031 110.43811,22.957031 C110.43811,22.957031 105.338135,1.9570312 105.338135,1.9570312 C105.338135,1.9570312 101.43811,1.9570312 101.43811,1.9570312 C101.43811,1.9570312 96.338135,22.957031 96.338135,22.957031 C96.338135,22.957031 99.03815,22.957031 99.03815,22.957031 C99.03815,22.957031 100.38812,17.557129 100.38812,17.557129 C100.38812,17.557129 106.38812,17.557129 106.38812,17.557129 ZM105.93814,15.457031 C105.93814,15.457031 100.838104,15.457031 100.838104,15.457031 C100.838104,15.457031 103.328125,4.9570312 103.328125,4.9570312 C103.328125,4.9570312 103.44812,4.9570312 103.44812,4.9570312 C103.44812,4.9570312 105.93814,15.457031 105.93814,15.457031 ZM115.83795,14.707031 C115.83795,14.707031 115.83795,3.6069336 115.83795,3.6069336 C115.83795,3.6069336 117.93799,3.6069336 117.93799,3.6069336 C118.617645,3.6069336 119.20264,3.6923828 119.69296,3.8620605 C120.18283,4.0322266 120.5878,4.3271484 120.90796,4.7470703 C121.22766,5.166992 121.46298,5.7370605 121.612976,6.4570312 C121.76297,7.177002 121.83801,8.076904 121.83801,9.157227 C121.83801,10.237061 121.76297,11.136963 121.612976,11.856934 C121.46298,12.576904 121.22766,13.146973 120.90796,13.566895 C120.5878,13.987061 120.18283,14.282471 119.69296,14.451904 C119.20264,14.62207 118.617645,14.707031 117.93799,14.707031 C117.93799,14.707031 115.83795,14.707031 115.83795,14.707031 ZM115.83795,16.50708 C116.21765,16.587158 116.69766,16.656982 117.277954,16.717041 C117.85782,16.7771 118.377655,16.806885 118.83792,16.806885 C119.81763,16.806885 120.66284,16.682373 121.372955,16.432129 C122.08261,16.182129 122.67279,15.762207 123.142975,15.172119 C123.61261,14.582275 123.9628,13.797363 124.19299,12.817139 C124.42264,11.837402 124.537964,10.6171875 124.537964,9.157227 C124.537964,7.7373047 124.41794,6.547119 124.17795,5.586914 C123.93799,4.626953 123.55783,3.8574219 123.037994,3.2770996 C122.51764,2.6972656 121.83801,2.2824707 120.997925,2.0319824 C120.15793,1.7822266 119.13797,1.6569824 117.93799,1.6569824 C117.037994,1.6569824 116.20264,1.7019043 115.43295,1.7919922 C114.66284,1.8818359 113.8978,2.0373535 113.138,2.25708 C113.138,2.25708 113.138,22.957031 113.138,22.957031 C113.138,22.957031 115.83795,22.957031 115.83795,22.957031 C115.83795,22.957031 115.83795,16.50708 115.83795,16.50708 ZM126.03769,4.057129 C126.03769,4.057129 130.8377,4.057129 130.8377,4.057129 C130.8377,4.057129 130.8377,22.957031 130.8377,22.957031 C130.8377,22.957031 133.53766,22.957031 133.53766,22.957031 C133.53766,22.957031 133.53766,4.057129 133.53766,4.057129 C133.53766,4.057129 138.33768,4.057129 138.33768,4.057129 C138.33768,4.057129 138.33768,1.9570312 138.33768,1.9570312 C138.33768,1.9570312 126.03769,1.9570312 126.03769,1.9570312 C126.03769,1.9570312 126.03769,4.057129 126.03769,4.057129 Z"/>
</svg>